<?xml version="1.0"?>
<svg version="1.1" id="圖層_1" xmlns="http://www.w3.org/2000/svg" x="0" y="0" viewBox="0 0 100 100" xml:space="preserve"><path stroke-linecap="round" fill="#849b87" stroke="#333" stroke-linejoin="round" stroke-width="3.5" stroke-miterlimit="10" d="M26.8 18.8h46.3v62.5H26.8z"/><path d="M64.5 90H35.4c-1.6 0-3.1-1-3.6-2.5-.8-2.2-2.4-4.4-5-6.6H73c-2.5 2.2-4.2 4.4-5 6.6-.4 1.5-1.8 2.5-3.5 2.5z" fill="#e0e0e0" stroke="#333" stroke-linejoin="round" stroke-width="3.5" stroke-miterlimit="10"/><path d="M67.7 10h0-35.3c-.1 3.1-1.9 6.1-5.4 9.2h46.2c-3.6-3.1-5.4-6.1-5.5-9.2z" fill="#e0e0e0" stroke="#333" stroke-linejoin="round" stroke-width="3.5" stroke-miterlimit="10"/><path fill="none" stroke-linecap="round" stroke-linejoin="round" stroke="#333" stroke-width="3.5" stroke-miterlimit="10" d="M29.3 10h41.4"/><path fill="#abbd81" stroke-linecap="round" stroke="#333" stroke-linejoin="round" stroke-width="3.5" stroke-miterlimit="10" d="M38.4 30.6h34.7v38.9H38.4z"/><path stroke-linecap="round" fill="#849b87" stroke="#333" stroke-linejoin="round" stroke-width="3.5" stroke-miterlimit="10" d="M26.8 18.8h46.3v62.5H26.8z"/><path d="M64.5 90H35.4c-1.6 0-3.1-1-3.6-2.5-.8-2.2-2.4-4.4-5-6.6H73c-2.5 2.2-4.2 4.4-5 6.6-.4 1.5-1.8 2.5-3.5 2.5z" fill="#e0e0e0" stroke="#333" stroke-linejoin="round" stroke-width="3.5" stroke-miterlimit="10"/><path d="M67.7 10h0-35.3c-.1 3.1-1.9 6.1-5.4 9.2h46.2c-3.6-3.1-5.4-6.1-5.5-9.2z" fill="#e0e0e0" stroke="#333" stroke-linejoin="round" stroke-width="3.5" stroke-miterlimit="10"/><path fill="#abbd81" stroke-linecap="round" stroke="#333" stroke-linejoin="round" stroke-width="3.5" stroke-miterlimit="10" d="M38.4 30.6h34.7v38.9H38.4z"/><path d="M72.6 18.8c-3.2-2.9-4.9-5.8-5-8.8h0-10.3 0c.1 2.9 1.4 5.8 3.9 8.8h.4v62.5h-.4c-1.8 2.1-3 4.2-3.5 6.2-.4 1.5-1.6 2.5-2.8 2.5h9.7c1.6 0 3.1-1 3.6-2.5.7-2.1 2.2-4.2 4.5-6.2h.5V18.8h-.6z" opacity=".2" stroke-linecap="round" stroke-linejoin="round" stroke="#000" stroke-width="3.5" stroke-miterlimit="10"/><path stroke-linecap="round" stroke-linejoin="round" fill="none" stroke="#fff" stroke-width="3.5" stroke-miterlimit="10" d="M32.5 26.2v10"/><path stroke-linecap="round" stroke-linejoin="round" fill="none" stroke="#fff" stroke-width="3.5" stroke-miterlimit="10" d="M32.5 42v.3"/><metadata xmlns:d="https://loading.io/stock/"><d:name>can</d:name><d:tags>can,soft drink,pop coke,beer,aluminum can</d:tags><d:license>by</d:license><d:slug>yjd2kl</d:slug></metadata></svg>