<?xml version="1.0"?>
<svg version="1.1" id="圖層_1" xmlns="http://www.w3.org/2000/svg" x="0" y="0" viewBox="0 0 100 100" xml:space="preserve"><path d="M44.5 14.2h-9.6v-3.6c0-.9.7-1.6 1.6-1.6h6.4c.9 0 1.6.7 1.6 1.6v3.6z" fill="#e0e0e0"/><g><path d="M76.2 26H23.8l4.8-12.2c.5-1.4 1.9-2.3 3.3-2.3H68c1.5 0 2.8.9 3.3 2.3L76.2 26z" fill="#cccbca"/><path d="M67.1 91H32.9c-1.9 0-3.4-1.4-3.6-3.3l-6-60.1h53.3l-6 60.1c-.1 1.9-1.6 3.3-3.5 3.3z" fill="#e6e6e5"/><path d="M78.9 31.3H21.1c-1.4 0-2.6-1.2-2.6-2.6v-4c0-1.4 1.2-2.6 2.6-2.6h57.8c1.4 0 2.6 1.2 2.6 2.6v4c0 1.4-1.2 2.6-2.6 2.6z" fill="#e0e0e0"/></g><path d="M72.7 75.8l3.5-34.9c.1-.6-.4-1.2-1.1-1.2H24.9c-.6 0-1.1.6-1.1 1.2l3.5 34.9c.1.6.5 1 1.1 1h43.3c.5 0 1-.5 1-1z" fill="#a0c7d6"/><path fill="#666" d="M75.5 47.5v-1.6h-51v1.8l.2 1.7h50.6z"/><path fill="#666" d="M26.6 67.4v1.7l.2 1.8h46.4l.2-2.1v-1.4z"/><path stroke-linecap="round" stroke="#666" fill="none" stroke-width="3.5" stroke-miterlimit="10" d="M33.6 81.6H51"/><path stroke-linecap="round" stroke="#666" fill="none" stroke-width="3.5" stroke-miterlimit="10" d="M56.4 81.6h2.2"/><path d="M78.9 22.1h-4.2l-3.3-8.2c-.5-1.4-1.9-2.3-3.3-2.3H54c1.1 0 2 .9 2.4 2.3l2.3 8.2h3c1 0 1.9 1.2 1.9 2.6v4c0 1.4-.8 2.6-1.9 2.6h-1.9l-.6 8.5c.3.2.6.6.5 1.1l-2.5 34.9c0 .5-.3.9-.7 1l-.8 10.9c-.1 1.9-1.2 3.3-2.6 3.3h13.8c1.9 0 3.4-1.4 3.6-3.3l1.1-10.9c.5-.1.9-.4 1-1l3.5-34.9c.1-.5-.3-1-.8-1.1l.8-8.5h2.6c1.4 0 2.6-1.2 2.6-2.6v-4c.2-1.4-1-2.6-2.4-2.6z" opacity=".2"/><metadata xmlns:d="https://loading.io/stock/"><d:name>cup</d:name><d:tags>cup,drink,coffee,hot drink,bottle,cafe,tea,starbucks</d:tags><d:license>by</d:license><d:slug>yp6hbz</d:slug></metadata></svg>