<?xml version="1.0"?>
<svg version="1.1" id="圖層_1" xmlns="http://www.w3.org/2000/svg" x="0" y="0" viewBox="0 0 100 100" xml:space="preserve"><g><g><path fill="none" stroke="#e0e0e0" stroke-width="6" stroke-miterlimit="10" d="M90 86.5V90h-3.5"/><path fill="none" stroke="#e0e0e0" stroke-width="6" stroke-miterlimit="10" stroke-dasharray="7.5147,8.5882" d="M77.912 90H17.794"/><path fill="none" stroke="#e0e0e0" stroke-width="6" stroke-miterlimit="10" d="M13.5 90H10v-3.5"/><path fill="none" stroke="#e0e0e0" stroke-width="6" stroke-miterlimit="10" stroke-dasharray="7.5147,8.5882" d="M10 77.912V17.794"/><path fill="none" stroke="#e0e0e0" stroke-width="6" stroke-miterlimit="10" d="M10 13.5V10h3.5"/><path fill="none" stroke="#e0e0e0" stroke-width="6" stroke-miterlimit="10" stroke-dasharray="7.5147,8.5882" d="M22.088 10h60.118"/><path fill="none" stroke="#e0e0e0" stroke-width="6" stroke-miterlimit="10" d="M86.5 10H90v3.5"/><path fill="none" stroke="#e0e0e0" stroke-width="6" stroke-miterlimit="10" stroke-dasharray="7.5147,8.5882" d="M90 22.088v60.118"/></g></g><path d="M70 48H53V31a3 3 0 1 0-6 0v17H30a3 3 0 1 0 0 6h17v17a3 3 0 1 0 6 0V54h17a3 3 0 1 0 0-6z" fill="#333"/><metadata xmlns:d="https://loading.io/stock/"><d:name>drag</d:name><d:tags>drop,input,add,attach,upload,put,dash,plus,new,drag,form</d:tags><d:license>by</d:license><d:slug>o6fx3j</d:slug></metadata></svg>