<?xml version="1.0"?><svg xmlns="http://www.w3.org/2000/svg" viewBox="0 0 100 100"><path d="M67.73 27.463l-2.574-3.787a15.966 15.966 0 0 1-2.761-8.974V10H37.63v4.685a15.99 15.99 0 0 1-2.775 9.003l-3.197 4.691a23.248 23.248 0 0 0-4.035 13.09v41.287a7.245 7.245 0 0 0 7.245 7.245h30.265a7.245 7.245 0 0 0 7.245-7.245V42.569c0-5.387-1.62-10.65-4.648-15.106z" fill="#77a4bd"/><path d="M64.422 29.711l-2.574-3.787a19.885 19.885 0 0 1-3.452-11.222V14H41.63v.685c0 4.031-1.2 7.923-3.47 11.255L35.393 30h29.21c-.063-.095-.117-.194-.181-.289z" fill="#fff"/><path d="M31.622 41.468v41.287A3.25 3.25 0 0 0 34.867 86h30.266a3.25 3.25 0 0 0 3.245-3.245V42.569c0-4.49-1.31-8.825-3.775-12.569h-29.21l-.43.631a19.176 19.176 0 0 0-3.341 10.837z" fill="#77a4bd"/><metadata xmlns:d="https://loading.io/stock/">
<d:name>bottle</d:name>
<d:tags>bottle,milk,drink,water,alcohol,pop,grass,cup,container,beverages,percent,ratio</d:tags>
<d:license>by</d:license>
<d:slug>sm0t43</d:slug>
</metadata></svg>